<?xml version="1.0" encoding="UTF-8" standalone="no"?>
<svg width="112.889mm" height="32.8083mm"
 viewBox="0 0 320 93"
 xmlns="http://www.w3.org/2000/svg" xmlns:xlink="http://www.w3.org/1999/xlink"  version="1.2" baseProfile="tiny">
<title>Qt SVG Document</title>
<desc>Generated with Qt</desc>
<defs>
</defs>
<g fill="none" stroke="black" stroke-width="1" fill-rule="evenodd" stroke-linecap="square" stroke-linejoin="bevel" >

<g fill="#ffffff" fill-opacity="1" stroke="none" transform="matrix(1,0,0,1,0,0)"
font-family="Ubuntu" font-size="11" font-weight="400" font-style="normal" 
>
<rect x="0" y="0" width="1024" height="93"/>
</g>

<g fill="#000000" fill-opacity="1" stroke="#000000" stroke-opacity="1" stroke-width="1" stroke-linecap="butt" stroke-linejoin="miter" stroke-miterlimit="2" transform="matrix(1,0,0,1,0,0)"
font-family="Ubuntu" font-size="11" font-weight="400" font-style="normal" 
>
</g>

<g fill="#000000" fill-opacity="1" stroke="#000000" stroke-opacity="1" stroke-width="1" stroke-linecap="butt" stroke-linejoin="miter" stroke-miterlimit="2" transform="matrix(1,0,0,1,0,0)"
font-family="Ubuntu" font-size="11" font-weight="400" font-style="normal" 
>
</g>

<g fill="#000000" fill-opacity="1" stroke="#000000" stroke-opacity="1" stroke-width="1" stroke-linecap="butt" stroke-linejoin="miter" stroke-miterlimit="2" transform="matrix(1,0,0,1,0,0)"
font-family="Ubuntu" font-size="11" font-weight="400" font-style="normal" 
>
</g>

<g fill="#000000" fill-opacity="1" stroke="none" transform="matrix(1,0,0,1,0,0)"
font-family="Ubuntu" font-size="11" font-weight="400" font-style="normal" 
>
<rect x="0" y="0" width="1024" height="93"/>
</g>

<g fill="#ffffff" fill-opacity="1" stroke="#ffffff" stroke-opacity="1" stroke-width="1" stroke-linecap="square" stroke-linejoin="bevel" transform="matrix(1,0,0,1,0,0)"
font-family="Ubuntu" font-size="11" font-weight="400" font-style="normal" 
>
</g>

<g fill="#ffffff" fill-opacity="1" stroke="none" transform="matrix(1,0,0,1,0,0)"
font-family="Ubuntu" font-size="11" font-weight="400" font-style="normal" 
>
<path vector-effect="none" fill-rule="nonzero" d="M8.89063,37 L8.89063,36.1719 L10.375,36.1719 L10.375,26.1719 L8.89063,26.1719 L8.89063,25.3281 L13.4375,25.3281 L13.4375,26.1719 L11.9531,26.1719 L11.9531,30.2031 L18,30.2031 L18,26.1719 L16.5156,26.1719 L16.5156,25.3281 L21.0781,25.3281 L21.0781,26.1719 L19.5938,26.1719 L19.5938,36.1719 L21.0781,36.1719 L21.0781,37 L16.5156,37 L16.5156,36.1719 L18,36.1719 L18,31.1563 L11.9531,31.1563 L11.9531,36.1719 L13.4375,36.1719 L13.4375,37 L8.89063,37 M26.7656,36.4531 C27.5365,36.4531 28.1198,36.1484 28.5156,35.5391 C28.9115,34.9297 29.1094,34.0313 29.1094,32.8438 C29.1094,31.6563 28.9115,30.7578 28.5156,30.1484 C28.1198,29.5391 27.5365,29.2344 26.7656,29.2344 C25.9948,29.2344 25.4141,29.5391 25.0234,30.1484 C24.6328,30.7578 24.4375,31.6563 24.4375,32.8438 C24.4375,34.0313 24.6354,34.9297 25.0313,35.5391 C25.4271,36.1484 26.0052,36.4531 26.7656,36.4531 M26.7656,37.2344 C25.5573,37.2344 24.5859,36.8333 23.8516,36.0313 C23.1172,35.2292 22.75,34.1667 22.75,32.8438 C22.75,31.5208 23.1172,30.4609 23.8516,29.6641 C24.5859,28.8672 25.5573,28.4688 26.7656,28.4688 C27.9844,28.4688 28.9583,28.8672 29.6875,29.6641 C30.4167,30.4609 30.7813,31.5208 30.7813,32.8438 C30.7813,34.1667 30.4167,35.2292 29.6875,36.0313 C28.9583,36.8333 27.9844,37.2344 26.7656,37.2344 M34.8594,36.1719 L36.2188,36.1719 L36.2188,37 L32.0469,37 L32.0469,36.1719 L33.4219,36.1719 L33.4219,25.6719 L32.0469,25.6719 L32.0469,24.8438 L34.8594,24.8438 L34.8594,36.1719 M43.0625,34.3906 L43.0625,32.625 L41.2031,32.625 C40.4948,32.625 39.9661,32.7786 39.6172,33.0859 C39.2682,33.3932 39.0938,33.8646 39.0938,34.5 C39.0938,35.0833 39.2708,35.5443 39.625,35.8828 C39.9792,36.2214 40.4583,36.3906 41.0625,36.3906 C41.6563,36.3906 42.138,36.2057 42.5078,35.8359 C42.8776,35.4661 43.0625,34.9844 43.0625,34.3906 M44.5,31.8125 L44.5,36.1719 L45.7813,36.1719 L45.7813,37 L43.0625,37 L43.0625,36.0938 C42.7396,36.4792 42.3698,36.7656 41.9531,36.9531 C41.5365,37.1406 41.0521,37.2344 40.5,37.2344 C39.5729,37.2344 38.8385,36.987 38.2969,36.4922 C37.7552,35.9974 37.4844,35.3333 37.4844,34.5 C37.4844,33.6458 37.7943,32.9818 38.4141,32.5078 C39.0339,32.0339 39.9115,31.7969 41.0469,31.7969 L43.0625,31.7969 L43.0625,31.2188 C43.0625,30.5938 42.8698,30.1068 42.4844,29.7578 C42.099,29.4089 41.5625,29.2344 40.875,29.2344 C40.3021,29.2344 39.8464,29.3646 39.5078,29.625 C39.1693,29.8854 38.9583,30.2708 38.875,30.7813 L38.125,30.7813 L38.125,29.1094 C38.625,28.8906 39.112,28.7292 39.5859,28.625 C40.0599,28.5208 40.5208,28.4688 40.9688,28.4688 C42.1146,28.4688 42.9896,28.7526 43.5938,29.3203 C44.1979,29.888 44.5,30.7188 44.5,31.8125 M59.5938,30.3125 C59.8646,29.6979 60.2161,29.237 60.6484,28.9297 C61.0807,28.6224 61.5833,28.4688 62.1563,28.4688 C63.0208,28.4688 63.6667,28.737 64.0938,29.2734 C64.5208,29.8099 64.7344,30.625 64.7344,31.7188 L64.7344,36.1719 L66.0313,36.1719 L66.0313,37 L62.0469,37 L62.0469,36.1719 L63.2969,36.1719 L63.2969,31.875 C63.2969,31.0313 63.1719,30.4297 62.9219,30.0703 C62.6719,29.7109 62.2604,29.5313 61.6875,29.5313 C61.0417,29.5313 60.5521,29.7734 60.2188,30.2578 C59.8854,30.7422 59.7188,31.4479 59.7188,32.375 L59.7188,36.1719 L60.9688,36.1719 L60.9688,37 L57.0313,37 L57.0313,36.1719 L58.2813,36.1719 L58.2813,31.8281 C58.2813,30.9948 58.1563,30.4036 57.9063,30.0547 C57.6563,29.7057 57.2396,29.5313 56.6563,29.5313 C56.0208,29.5313 55.5339,29.7734 55.1953,30.2578 C54.8568,30.7422 54.6875,31.4479 54.6875,32.375 L54.6875,36.1719 L55.9375,36.1719 L55.9375,37 L51.9531,37 L51.9531,36.1719 L53.25,36.1719 L53.25,29.5156 L51.875,29.5156 L51.875,28.6875 L54.6875,28.6875 L54.6875,30.1719 C54.9583,29.6198 55.2995,29.1979 55.7109,28.9063 C56.1224,28.6146 56.5885,28.4688 57.1094,28.4688 C57.7552,28.4688 58.2943,28.6276 58.7266,28.9453 C59.1589,29.263 59.4479,29.7188 59.5938,30.3125 M72.1406,28.6875 L74.8281,28.6875 L74.8281,36.1719 L76.1875,36.1719 L76.1875,37 L73.3906,37 L73.3906,35.5313 C73.1198,36.0833 72.7734,36.5052 72.3516,36.7969 C71.9297,37.0885 71.4427,37.2344 70.8906,37.2344 C69.9635,37.2344 69.2839,36.9714 68.8516,36.4453 C68.4193,35.9193 68.2031,35.0938 68.2031,33.9688 L68.2031,29.5313 L66.9063,29.5313 L66.9063,28.6875 L69.6406,28.6875 L69.6406,33.5313 C69.6406,34.5417 69.7656,35.2344 70.0156,35.6094 C70.2656,35.9844 70.7083,36.1719 71.3438,36.1719 C72.0104,36.1719 72.5182,35.9271 72.8672,35.4375 C73.2161,34.9479 73.3906,34.2344 73.3906,33.2969 L73.3906,29.5313 L72.1406,29.5313 L72.1406,28.6875 M77.4219,37 L77.4219,36.1719 L78.7188,36.1719 L78.7188,29.5313 L77.3438,29.5313 L77.3438,28.6875 L80.1563,28.6875 L80.1563,30.1719 C80.4271,29.6094 80.7734,29.1849 81.1953,28.8984 C81.6172,28.612 82.1094,28.4688 82.6719,28.4688 C83.5885,28.4688 84.263,28.7318 84.6953,29.2578 C85.1276,29.7839 85.3438,30.6042 85.3438,31.7188 L85.3438,36.1719 L86.625,36.1719 L86.625,37 L82.6563,37 L82.6563,36.1719 L83.9063,36.1719 L83.9063,32.1719 C83.9063,31.151 83.7813,30.4531 83.5313,30.0781 C83.2813,29.7031 82.8385,29.5156 82.2031,29.5156 C81.5365,29.5156 81.0286,29.7578 80.6797,30.2422 C80.3307,30.7266 80.1563,31.4375 80.1563,32.375 L80.1563,36.1719 L81.4063,36.1719 L81.4063,37 L77.4219,37 M95.4688,36.1719 L96.8438,36.1719 L96.8438,37 L94.0313,37 L94.0313,35.7031 C93.75,36.224 93.3906,36.6094 92.9531,36.8594 C92.5156,37.1094 91.9792,37.2344 91.3438,37.2344 C90.3229,37.2344 89.487,36.8281 88.8359,36.0156 C88.1849,35.2031 87.8594,34.1458 87.8594,32.8438 C87.8594,31.5417 88.1823,30.487 88.8281,29.6797 C89.474,28.8724 90.3125,28.4688 91.3438,28.4688 C91.9792,28.4688 92.5156,28.5911 92.9531,28.8359 C93.3906,29.0807 93.75,29.4635 94.0313,29.9844 L94.0313,25.6719 L92.6719,25.6719 L92.6719,24.8438 L95.4688,24.8438 L95.4688,36.1719 M94.0313,33.25 L94.0313,32.4375 C94.0313,31.4375 93.8385,30.6745 93.4531,30.1484 C93.0677,29.6224 92.5104,29.3594 91.7813,29.3594 C91.0417,29.3594 90.4844,29.651 90.1094,30.2344 C89.7344,30.8177 89.5469,31.6875 89.5469,32.8438 C89.5469,33.9896 89.7344,34.8568 90.1094,35.4453 C90.4844,36.0339 91.0417,36.3281 91.7813,36.3281 C92.5104,36.3281 93.0677,36.0651 93.4531,35.5391 C93.8385,35.013 94.0313,34.25 94.0313,33.25 M102.109,36.4531 C102.88,36.4531 103.464,36.1484 103.859,35.5391 C104.255,34.9297 104.453,34.0313 104.453,32.8438 C104.453,31.6563 104.255,30.7578 103.859,30.1484 C103.464,29.5391 102.88,29.2344 102.109,29.2344 C101.339,29.2344 100.758,29.5391 100.367,30.1484 C99.9766,30.7578 99.7813,31.6563 99.7813,32.8438 C99.7813,34.0313 99.9792,34.9297 100.375,35.5391 C100.771,36.1484 101.349,36.4531 102.109,36.4531 M102.109,37.2344 C100.901,37.2344 99.9297,36.8333 99.1953,36.0313 C98.4609,35.2292 98.0938,34.1667 98.0938,32.8438 C98.0938,31.5208 98.4609,30.4609 99.1953,29.6641 C99.9297,28.8672 100.901,28.4688 102.109,28.4688 C103.328,28.4688 104.302,28.8672 105.031,29.6641 C105.76,30.4609 106.125,31.5208 106.125,32.8438 C106.125,34.1667 105.76,35.2292 105.031,36.0313 C104.302,36.8333 103.328,37.2344 102.109,37.2344 M109.109,36.1875 C109.109,35.8958 109.208,35.6484 109.406,35.4453 C109.604,35.2422 109.849,35.1406 110.141,35.1406 C110.432,35.1406 110.68,35.2422 110.883,35.4453 C111.086,35.6484 111.188,35.8958 111.188,36.1875 C111.188,36.4688 111.086,36.7135 110.883,36.9219 C110.68,37.1302 110.432,37.2344 110.141,37.2344 C109.849,37.2344 109.604,37.1328 109.406,36.9297 C109.208,36.7266 109.109,36.4792 109.109,36.1875 M109.141,25.3281 L111.156,25.3281 L110.625,31.75 L110.625,33.7188 L109.656,33.7188 L109.656,31.75 L109.141,25.3281"/>
</g>

<g fill="#ffffff" fill-opacity="1" stroke="#ffffff" stroke-opacity="1" stroke-width="1" stroke-linecap="square" stroke-linejoin="bevel" transform="matrix(1,0,0,1,0,0)"
font-family="Ubuntu" font-size="11" font-weight="400" font-style="normal" 
>
<text fill="#ffffff" fill-opacity="1" stroke="none" xml:space="preserve" x="0" y="0" font-family="Ubuntu" font-size="11" font-weight="400" font-style="normal" 
 ></text>
</g>

<g fill="#ffffff" fill-opacity="1" stroke="#000000" stroke-opacity="1" stroke-width="1" stroke-linecap="butt" stroke-linejoin="miter" stroke-miterlimit="2" transform="matrix(1,0,0,1,0,0)"
font-family="Ubuntu" font-size="11" font-weight="400" font-style="normal" 
>
</g>

<g fill="#ffffff" fill-opacity="1" stroke="#000000" stroke-opacity="1" stroke-width="1" stroke-linecap="butt" stroke-linejoin="miter" stroke-miterlimit="2" transform="matrix(1,0,0,1,0,0)"
font-family="Ubuntu" font-size="11" font-weight="400" font-style="normal" 
>
</g>

<g fill="#ffffff" fill-opacity="1" stroke="#000000" stroke-opacity="1" stroke-width="1" stroke-linecap="butt" stroke-linejoin="miter" stroke-miterlimit="2" transform="matrix(1,0,0,1,113,8)"
font-family="Ubuntu" font-size="11" font-weight="400" font-style="normal" 
>
</g>

<g fill="#ffffff" fill-opacity="1" stroke="#000000" stroke-opacity="1" stroke-width="1" stroke-linecap="butt" stroke-linejoin="miter" stroke-miterlimit="2" transform="matrix(1,0,0,1,113,8)"
font-family="Ubuntu" font-size="11" font-weight="400" font-style="normal" 
>
</g>

<g fill="#ffffff" fill-opacity="1" stroke="#000000" stroke-opacity="1" stroke-width="1" stroke-linecap="butt" stroke-linejoin="miter" stroke-miterlimit="2" transform="matrix(1,0,0,1,113,8)"
font-family="Ubuntu" font-size="11" font-weight="400" font-style="normal" 
>
</g>

<g fill="#ffffff" fill-opacity="1" stroke="#000000" stroke-opacity="1" stroke-width="1" stroke-linecap="butt" stroke-linejoin="miter" stroke-miterlimit="2" transform="matrix(0.0976563,0,0,0.0976563,113,8)"
font-family="Ubuntu" font-size="11" font-weight="400" font-style="normal" 
>
</g>

<g fill="#aade87" fill-opacity="1" stroke="none" transform="matrix(0.0976563,0,0,0.0976563,113,8)"
font-family="Ubuntu" font-size="11" font-weight="400" font-style="normal" 
>
<path vector-effect="none" fill-rule="nonzero" d="M256,37.143 L77.9,343.853 L434.11,343.853 L256.01,37.143 L256,37.143 M230.154,49.789 L72.004,164.229 L72.004,322.139 L230.154,49.789 M281.843,49.789 L440.003,322.149 L440.003,164.239 L281.843,49.799 L281.843,49.789 M247.796,163.379 L266.734,163.379 L266.734,287.409 L297.672,287.409 L297.672,303.347 L217.047,303.347 L217.047,287.409 L247.985,287.409 L247.985,180.629 L214.329,187.379 L214.329,170.129 L247.798,163.379 L247.796,163.379 M88.696,359.849 L255.996,480.909 L423.296,359.849 L88.696,359.849"/>
</g>

<g fill="none" stroke="#535353" stroke-opacity="1" stroke-width="6.3" stroke-linecap="round" stroke-linejoin="round" transform="matrix(0.0976563,0,0,0.0976563,113,8)"
font-family="Ubuntu" font-size="11" font-weight="400" font-style="normal" 
>
<path vector-effect="none" fill-rule="nonzero" d="M256,37.143 L77.9,343.853 L434.11,343.853 L256.01,37.143 L256,37.143 M230.154,49.789 L72.004,164.229 L72.004,322.139 L230.154,49.789 M281.843,49.789 L440.003,322.149 L440.003,164.239 L281.843,49.799 L281.843,49.789 M247.796,163.379 L266.734,163.379 L266.734,287.409 L297.672,287.409 L297.672,303.347 L217.047,303.347 L217.047,287.409 L247.985,287.409 L247.985,180.629 L214.329,187.379 L214.329,170.129 L247.798,163.379 L247.796,163.379 M88.696,359.849 L255.996,480.909 L423.296,359.849 L88.696,359.849"/>
</g>

<g fill="#ffffff" fill-opacity="1" stroke="#000000" stroke-opacity="1" stroke-width="1" stroke-linecap="butt" stroke-linejoin="miter" stroke-miterlimit="2" transform="matrix(0.0976563,0,0,0.0976563,113,8)"
font-family="Ubuntu" font-size="11" font-weight="400" font-style="normal" 
>
</g>

<g fill="#ffffff" fill-opacity="1" stroke="#000000" stroke-opacity="1" stroke-width="1" stroke-linecap="butt" stroke-linejoin="miter" stroke-miterlimit="2" transform="matrix(0.0976563,0,0,0.0976563,113,8)"
font-family="Ubuntu" font-size="11" font-weight="400" font-style="normal" 
>
</g>

<g fill="#ffffff" fill-opacity="1" stroke="#000000" stroke-opacity="1" stroke-width="1" stroke-linecap="butt" stroke-linejoin="miter" stroke-miterlimit="2" transform="matrix(1,0,0,1,0,0)"
font-family="Ubuntu" font-size="11" font-weight="400" font-style="normal" 
>
</g>

<g fill="#ffffff" fill-opacity="1" stroke="#000000" stroke-opacity="1" stroke-width="1" stroke-linecap="butt" stroke-linejoin="miter" stroke-miterlimit="2" transform="matrix(1,0,0,1,0,0)"
font-family="Ubuntu" font-size="11" font-weight="400" font-style="normal" 
>
</g>

<g fill="#ffffff" fill-opacity="1" stroke="#000000" stroke-opacity="1" stroke-width="1" stroke-linecap="butt" stroke-linejoin="miter" stroke-miterlimit="2" transform="matrix(1,0,0,1,0,0)"
font-family="Ubuntu" font-size="11" font-weight="400" font-style="normal" 
>
</g>

<g fill="#ffffff" fill-opacity="1" stroke="#000000" stroke-opacity="1" stroke-width="1" stroke-linecap="butt" stroke-linejoin="miter" stroke-miterlimit="2" transform="matrix(1,0,0,1,113,8)"
font-family="Ubuntu" font-size="11" font-weight="400" font-style="normal" 
>
</g>

<g fill="#ffffff" fill-opacity="1" stroke="#000000" stroke-opacity="1" stroke-width="1" stroke-linecap="butt" stroke-linejoin="miter" stroke-miterlimit="2" transform="matrix(1,0,0,1,113,8)"
font-family="Ubuntu" font-size="11" font-weight="400" font-style="normal" 
>
</g>

<g fill="#ffffff" fill-opacity="1" stroke="#000000" stroke-opacity="1" stroke-width="1" stroke-linecap="butt" stroke-linejoin="miter" stroke-miterlimit="2" transform="matrix(1,0,0,1,113,8)"
font-family="Ubuntu" font-size="11" font-weight="400" font-style="normal" 
>
</g>

<g fill="#ffffff" fill-opacity="1" stroke="#000000" stroke-opacity="1" stroke-width="1" stroke-linecap="butt" stroke-linejoin="miter" stroke-miterlimit="2" transform="matrix(1,0,0,1,0,0)"
font-family="Ubuntu" font-size="11" font-weight="400" font-style="normal" 
>
</g>

<g fill="#ffffff" fill-opacity="1" stroke="#000000" stroke-opacity="1" stroke-width="1" stroke-linecap="butt" stroke-linejoin="miter" stroke-miterlimit="2" transform="matrix(1,0,0,1,0,0)"
font-family="Ubuntu" font-size="11" font-weight="400" font-style="normal" 
>
</g>

<g fill="#ffffff" fill-opacity="1" stroke="#000000" stroke-opacity="1" stroke-width="1" stroke-linecap="butt" stroke-linejoin="miter" stroke-miterlimit="2" transform="matrix(1,0,0,1,0,0)"
font-family="Ubuntu" font-size="11" font-weight="400" font-style="normal" 
>
</g>

<g fill="#ffffff" fill-opacity="1" stroke="#000000" stroke-opacity="1" stroke-width="1" stroke-linecap="butt" stroke-linejoin="miter" stroke-miterlimit="2" transform="matrix(1,0,0,1,113,8)"
font-family="Ubuntu" font-size="11" font-weight="400" font-style="normal" 
>
</g>

<g fill="#ffffff" fill-opacity="1" stroke="#000000" stroke-opacity="1" stroke-width="1" stroke-linecap="butt" stroke-linejoin="miter" stroke-miterlimit="2" transform="matrix(1,0,0,1,113,8)"
font-family="Ubuntu" font-size="11" font-weight="400" font-style="normal" 
>
</g>

<g fill="#ffffff" fill-opacity="1" stroke="#000000" stroke-opacity="1" stroke-width="1" stroke-linecap="butt" stroke-linejoin="miter" stroke-miterlimit="2" transform="matrix(1,0,0,1,0,0)"
font-family="Ubuntu" font-size="11" font-weight="400" font-style="normal" 
>
</g>

<g fill="#ffffff" fill-opacity="1" stroke="#000000" stroke-opacity="1" stroke-width="1" stroke-linecap="butt" stroke-linejoin="miter" stroke-miterlimit="2" transform="matrix(1,0,0,1,0,0)"
font-family="Ubuntu" font-size="11" font-weight="400" font-style="normal" 
>
</g>

<g fill="#ffffff" fill-opacity="1" stroke="#000000" stroke-opacity="1" stroke-width="1" stroke-linecap="butt" stroke-linejoin="miter" stroke-miterlimit="2" transform="matrix(1,0,0,1,0,0)"
font-family="Ubuntu" font-size="11" font-weight="400" font-style="normal" 
>
</g>

<g fill="#ffffff" fill-opacity="1" stroke="#ffffff" stroke-opacity="1" stroke-width="1" stroke-linecap="square" stroke-linejoin="bevel" transform="matrix(1,0,0,1,0,0)"
font-family="Ubuntu" font-size="11" font-weight="400" font-style="normal" 
>
</g>

<g fill="#ffffff" fill-opacity="1" stroke="none" transform="matrix(1,0,0,1,0,0)"
font-family="Ubuntu" font-size="11" font-weight="400" font-style="normal" 
>
<path vector-effect="none" fill-rule="nonzero" d="M175.75,26.9688 L175.75,31.3438 L180.141,31.3438 L180.141,32.6094 L175.75,32.6094 L175.75,37 L174.5,37 L174.5,32.6094 L170.125,32.6094 L170.125,31.3438 L174.5,31.3438 L174.5,26.9688 L175.75,26.9688"/>
</g>

<g fill="#ffffff" fill-opacity="1" stroke="#ffffff" stroke-opacity="1" stroke-width="1" stroke-linecap="square" stroke-linejoin="bevel" transform="matrix(1,0,0,1,0,0)"
font-family="Ubuntu" font-size="11" font-weight="400" font-style="normal" 
>
<text fill="#ffffff" fill-opacity="1" stroke="none" xml:space="preserve" x="0" y="0" font-family="Ubuntu" font-size="11" font-weight="400" font-style="normal" 
 ></text>
</g>

<g fill="#ffffff" fill-opacity="1" stroke="#000000" stroke-opacity="1" stroke-width="1" stroke-linecap="butt" stroke-linejoin="miter" stroke-miterlimit="2" transform="matrix(1,0,0,1,0,0)"
font-family="Ubuntu" font-size="11" font-weight="400" font-style="normal" 
>
</g>

<g fill="#ffffff" fill-opacity="1" stroke="#000000" stroke-opacity="1" stroke-width="1" stroke-linecap="butt" stroke-linejoin="miter" stroke-miterlimit="2" transform="matrix(1,0,0,1,0,0)"
font-family="Ubuntu" font-size="11" font-weight="400" font-style="normal" 
>
</g>

<g fill="#ffffff" fill-opacity="1" stroke="#000000" stroke-opacity="1" stroke-width="1" stroke-linecap="butt" stroke-linejoin="miter" stroke-miterlimit="2" transform="matrix(1,0,0,1,187,8)"
font-family="Ubuntu" font-size="11" font-weight="400" font-style="normal" 
>
</g>

<g fill="#ffffff" fill-opacity="1" stroke="#000000" stroke-opacity="1" stroke-width="1" stroke-linecap="butt" stroke-linejoin="miter" stroke-miterlimit="2" transform="matrix(1,0,0,1,187,8)"
font-family="Ubuntu" font-size="11" font-weight="400" font-style="normal" 
>
</g>

<g fill="#ffffff" fill-opacity="1" stroke="#000000" stroke-opacity="1" stroke-width="1" stroke-linecap="butt" stroke-linejoin="miter" stroke-miterlimit="2" transform="matrix(1,0,0,1,187,8)"
font-family="Ubuntu" font-size="11" font-weight="400" font-style="normal" 
>
</g>

<g fill="#ffffff" fill-opacity="1" stroke="#000000" stroke-opacity="1" stroke-width="1" stroke-linecap="butt" stroke-linejoin="miter" stroke-miterlimit="2" transform="matrix(0.0976563,0,0,0.0976563,187,8)"
font-family="Ubuntu" font-size="11" font-weight="400" font-style="normal" 
>
</g>

<g fill="#aade87" fill-opacity="1" stroke="none" transform="matrix(0.0976563,0,0,0.0976563,187,8)"
font-family="Ubuntu" font-size="11" font-weight="400" font-style="normal" 
>
<path vector-effect="none" fill-rule="nonzero" d="M256,37.143 L77.9,343.853 L434.11,343.853 L256.01,37.143 L256,37.143 M230.154,49.789 L72.004,164.229 L72.004,322.139 L230.154,49.789 M281.843,49.789 L440.003,322.149 L440.003,164.239 L281.843,49.799 L281.843,49.789 M216.624,158.959 L290.968,158.959 L290.968,174.897 L233.968,174.897 L233.968,209.209 C236.718,208.271 239.468,207.584 242.218,207.146 C244.968,206.646 247.718,206.396 250.468,206.396 C266.093,206.396 278.468,210.678 287.593,219.24 C296.718,227.803 301.281,239.396 301.281,254.021 C301.281,269.083 296.593,280.802 287.219,289.177 C277.844,297.49 264.625,301.646 247.563,301.646 C241.688,301.646 235.688,301.146 229.563,300.146 C223.5,299.146 217.219,297.646 210.719,295.646 L210.719,276.615 C216.344,279.678 222.157,281.959 228.157,283.459 C234.157,284.959 240.501,285.709 247.188,285.709 C258,285.709 266.563,282.865 272.876,277.178 C279.189,271.491 282.345,263.772 282.345,254.022 C282.345,244.272 279.189,236.553 272.876,230.866 C266.563,225.179 258.001,222.335 247.188,222.335 C242.125,222.335 237.063,222.897 232,224.022 C227,225.147 221.875,226.897 216.625,229.272 L216.625,158.96 L216.624,158.959 M88.694,359.849 L255.994,480.909 L423.294,359.849 L88.694,359.849 L88.694,359.849"/>
</g>

<g fill="none" stroke="#535353" stroke-opacity="1" stroke-width="6.3" stroke-linecap="round" stroke-linejoin="round" transform="matrix(0.0976563,0,0,0.0976563,187,8)"
font-family="Ubuntu" font-size="11" font-weight="400" font-style="normal" 
>
<path vector-effect="none" fill-rule="nonzero" d="M256,37.143 L77.9,343.853 L434.11,343.853 L256.01,37.143 L256,37.143 M230.154,49.789 L72.004,164.229 L72.004,322.139 L230.154,49.789 M281.843,49.789 L440.003,322.149 L440.003,164.239 L281.843,49.799 L281.843,49.789 M216.624,158.959 L290.968,158.959 L290.968,174.897 L233.968,174.897 L233.968,209.209 C236.718,208.271 239.468,207.584 242.218,207.146 C244.968,206.646 247.718,206.396 250.468,206.396 C266.093,206.396 278.468,210.678 287.593,219.24 C296.718,227.803 301.281,239.396 301.281,254.021 C301.281,269.083 296.593,280.802 287.219,289.177 C277.844,297.49 264.625,301.646 247.563,301.646 C241.688,301.646 235.688,301.146 229.563,300.146 C223.5,299.146 217.219,297.646 210.719,295.646 L210.719,276.615 C216.344,279.678 222.157,281.959 228.157,283.459 C234.157,284.959 240.501,285.709 247.188,285.709 C258,285.709 266.563,282.865 272.876,277.178 C279.189,271.491 282.345,263.772 282.345,254.022 C282.345,244.272 279.189,236.553 272.876,230.866 C266.563,225.179 258.001,222.335 247.188,222.335 C242.125,222.335 237.063,222.897 232,224.022 C227,225.147 221.875,226.897 216.625,229.272 L216.625,158.96 L216.624,158.959 M88.694,359.849 L255.994,480.909 L423.294,359.849 L88.694,359.849 L88.694,359.849"/>
</g>

<g fill="#ffffff" fill-opacity="1" stroke="#000000" stroke-opacity="1" stroke-width="1" stroke-linecap="butt" stroke-linejoin="miter" stroke-miterlimit="2" transform="matrix(0.0976563,0,0,0.0976563,187,8)"
font-family="Ubuntu" font-size="11" font-weight="400" font-style="normal" 
>
</g>

<g fill="#ffffff" fill-opacity="1" stroke="#000000" stroke-opacity="1" stroke-width="1" stroke-linecap="butt" stroke-linejoin="miter" stroke-miterlimit="2" transform="matrix(0.0976563,0,0,0.0976563,187,8)"
font-family="Ubuntu" font-size="11" font-weight="400" font-style="normal" 
>
</g>

<g fill="#ffffff" fill-opacity="1" stroke="#000000" stroke-opacity="1" stroke-width="1" stroke-linecap="butt" stroke-linejoin="miter" stroke-miterlimit="2" transform="matrix(1,0,0,1,0,0)"
font-family="Ubuntu" font-size="11" font-weight="400" font-style="normal" 
>
</g>

<g fill="#ffffff" fill-opacity="1" stroke="#000000" stroke-opacity="1" stroke-width="1" stroke-linecap="butt" stroke-linejoin="miter" stroke-miterlimit="2" transform="matrix(1,0,0,1,0,0)"
font-family="Ubuntu" font-size="11" font-weight="400" font-style="normal" 
>
</g>

<g fill="#ffffff" fill-opacity="1" stroke="#000000" stroke-opacity="1" stroke-width="1" stroke-linecap="butt" stroke-linejoin="miter" stroke-miterlimit="2" transform="matrix(1,0,0,1,0,0)"
font-family="Ubuntu" font-size="11" font-weight="400" font-style="normal" 
>
</g>

<g fill="#ffffff" fill-opacity="1" stroke="#000000" stroke-opacity="1" stroke-width="1" stroke-linecap="butt" stroke-linejoin="miter" stroke-miterlimit="2" transform="matrix(1,0,0,1,187,8)"
font-family="Ubuntu" font-size="11" font-weight="400" font-style="normal" 
>
</g>

<g fill="#ffffff" fill-opacity="1" stroke="#000000" stroke-opacity="1" stroke-width="1" stroke-linecap="butt" stroke-linejoin="miter" stroke-miterlimit="2" transform="matrix(1,0,0,1,187,8)"
font-family="Ubuntu" font-size="11" font-weight="400" font-style="normal" 
>
</g>

<g fill="#ffffff" fill-opacity="1" stroke="#000000" stroke-opacity="1" stroke-width="1" stroke-linecap="butt" stroke-linejoin="miter" stroke-miterlimit="2" transform="matrix(1,0,0,1,187,8)"
font-family="Ubuntu" font-size="11" font-weight="400" font-style="normal" 
>
</g>

<g fill="#ffffff" fill-opacity="1" stroke="#000000" stroke-opacity="1" stroke-width="1" stroke-linecap="butt" stroke-linejoin="miter" stroke-miterlimit="2" transform="matrix(1,0,0,1,0,0)"
font-family="Ubuntu" font-size="11" font-weight="400" font-style="normal" 
>
</g>

<g fill="#ffffff" fill-opacity="1" stroke="#000000" stroke-opacity="1" stroke-width="1" stroke-linecap="butt" stroke-linejoin="miter" stroke-miterlimit="2" transform="matrix(1,0,0,1,0,0)"
font-family="Ubuntu" font-size="11" font-weight="400" font-style="normal" 
>
</g>

<g fill="#ffffff" fill-opacity="1" stroke="#000000" stroke-opacity="1" stroke-width="1" stroke-linecap="butt" stroke-linejoin="miter" stroke-miterlimit="2" transform="matrix(1,0,0,1,0,0)"
font-family="Ubuntu" font-size="11" font-weight="400" font-style="normal" 
>
</g>

<g fill="#ffffff" fill-opacity="1" stroke="#000000" stroke-opacity="1" stroke-width="1" stroke-linecap="butt" stroke-linejoin="miter" stroke-miterlimit="2" transform="matrix(1,0,0,1,187,8)"
font-family="Ubuntu" font-size="11" font-weight="400" font-style="normal" 
>
</g>

<g fill="#ffffff" fill-opacity="1" stroke="#000000" stroke-opacity="1" stroke-width="1" stroke-linecap="butt" stroke-linejoin="miter" stroke-miterlimit="2" transform="matrix(1,0,0,1,187,8)"
font-family="Ubuntu" font-size="11" font-weight="400" font-style="normal" 
>
</g>

<g fill="#ffffff" fill-opacity="1" stroke="#000000" stroke-opacity="1" stroke-width="1" stroke-linecap="butt" stroke-linejoin="miter" stroke-miterlimit="2" transform="matrix(1,0,0,1,0,0)"
font-family="Ubuntu" font-size="11" font-weight="400" font-style="normal" 
>
</g>

<g fill="#ffffff" fill-opacity="1" stroke="#000000" stroke-opacity="1" stroke-width="1" stroke-linecap="butt" stroke-linejoin="miter" stroke-miterlimit="2" transform="matrix(1,0,0,1,0,0)"
font-family="Ubuntu" font-size="11" font-weight="400" font-style="normal" 
>
</g>

<g fill="#ffffff" fill-opacity="1" stroke="#000000" stroke-opacity="1" stroke-width="1" stroke-linecap="butt" stroke-linejoin="miter" stroke-miterlimit="2" transform="matrix(1,0,0,1,0,0)"
font-family="Ubuntu" font-size="11" font-weight="400" font-style="normal" 
>
</g>

<g fill="#ffffff" fill-opacity="1" stroke="#ffffff" stroke-opacity="1" stroke-width="1" stroke-linecap="square" stroke-linejoin="bevel" transform="matrix(1,0,0,1,0,0)"
font-family="Ubuntu" font-size="11" font-weight="400" font-style="normal" 
>
</g>

<g fill="#ffffff" fill-opacity="1" stroke="none" transform="matrix(1,0,0,1,0,0)"
font-family="Ubuntu" font-size="11" font-weight="400" font-style="normal" 
>
<path vector-effect="none" fill-rule="nonzero" d="M249.313,26.9688 L249.313,31.3438 L253.703,31.3438 L253.703,32.6094 L249.313,32.6094 L249.313,37 L248.063,37 L248.063,32.6094 L243.688,32.6094 L243.688,31.3438 L248.063,31.3438 L248.063,26.9688 L249.313,26.9688 M268.516,25.3281 L268.516,26.6094 L263.172,26.6094 L263.172,29.9531 C263.443,29.7656 263.76,29.625 264.125,29.5313 C264.49,29.4375 264.896,29.3906 265.344,29.3906 C266.604,29.3906 267.599,29.7396 268.328,30.4375 C269.057,31.1354 269.422,32.0885 269.422,33.2969 C269.422,34.5365 269.052,35.5026 268.313,36.1953 C267.573,36.888 266.536,37.2344 265.203,37.2344 C264.672,37.2344 264.125,37.1667 263.563,37.0313 C263,36.8958 262.422,36.6979 261.828,36.4375 L261.828,34.1719 L262.719,34.1719 C262.76,34.9115 262.995,35.4766 263.422,35.8672 C263.849,36.2578 264.443,36.4531 265.203,36.4531 C266.026,36.4531 266.659,36.1823 267.102,35.6406 C267.544,35.099 267.766,34.3177 267.766,33.2969 C267.766,32.2865 267.547,31.513 267.109,30.9766 C266.672,30.4401 266.036,30.1719 265.203,30.1719 C264.734,30.1719 264.323,30.2552 263.969,30.4219 C263.615,30.5885 263.297,30.8438 263.016,31.1875 L262.344,31.1875 L262.344,25.3281 L268.516,25.3281 M283.047,26.9688 L283.047,31.3438 L287.438,31.3438 L287.438,32.6094 L283.047,32.6094 L283.047,37 L281.797,37 L281.797,32.6094 L277.422,32.6094 L277.422,31.3438 L281.797,31.3438 L281.797,26.9688 L283.047,26.9688 M299.438,36.4531 C300.177,36.4531 300.745,36.1823 301.141,35.6406 C301.536,35.099 301.734,34.3229 301.734,33.3125 C301.734,32.3021 301.536,31.5286 301.141,30.9922 C300.745,30.4557 300.177,30.1875 299.438,30.1875 C298.698,30.1875 298.133,30.4479 297.742,30.9688 C297.352,31.4896 297.156,32.2396 297.156,33.2188 C297.156,34.2604 297.354,35.0599 297.75,35.6172 C298.146,36.1745 298.708,36.4531 299.438,36.4531 M296.891,30.5781 C297.245,30.1823 297.646,29.888 298.094,29.6953 C298.542,29.5026 299.047,29.4063 299.609,29.4063 C300.776,29.4063 301.695,29.7552 302.367,30.4531 C303.039,31.151 303.375,32.1042 303.375,33.3125 C303.375,34.5 303.013,35.4505 302.289,36.1641 C301.565,36.8776 300.594,37.2344 299.375,37.2344 C298.063,37.2344 297.052,36.7422 296.344,35.7578 C295.635,34.7734 295.281,33.3698 295.281,31.5469 C295.281,29.5052 295.701,27.9245 296.539,26.8047 C297.378,25.6849 298.557,25.125 300.078,25.125 C300.495,25.125 300.93,25.1641 301.383,25.2422 C301.836,25.3203 302.297,25.4375 302.766,25.5938 L302.766,27.5156 L301.891,27.5156 C301.828,26.9844 301.628,26.5807 301.289,26.3047 C300.951,26.0286 300.495,25.8906 299.922,25.8906 C298.911,25.8906 298.159,26.2734 297.664,27.0391 C297.169,27.8047 296.911,28.9844 296.891,30.5781 "/>
</g>

<g fill="#ffffff" fill-opacity="1" stroke="#ffffff" stroke-opacity="1" stroke-width="1" stroke-linecap="square" stroke-linejoin="bevel" transform="matrix(1,0,0,1,0,0)"
font-family="Ubuntu" font-size="11" font-weight="400" font-style="normal" 
>
<text fill="#ffffff" fill-opacity="1" stroke="none" xml:space="preserve" x="0" y="0" font-family="Ubuntu" font-size="11" font-weight="400" font-style="normal" 
 ></text>
</g>

<g fill="#ffffff" fill-opacity="1" stroke="#ffffff" stroke-opacity="1" stroke-width="1" stroke-linecap="square" stroke-linejoin="bevel" transform="matrix(1,0,0,1,0,0)"
font-family="Ubuntu" font-size="11" font-weight="400" font-style="normal" 
>
</g>

<g fill="#ffffff" fill-opacity="1" stroke="none" transform="matrix(1,0,0,1,0,0)"
font-family="Ubuntu" font-size="11" font-weight="400" font-style="normal" 
>
<path vector-effect="none" fill-rule="nonzero" d="M15.3281,62.9688 L15.3281,67.3438 L19.7188,67.3438 L19.7188,68.6094 L15.3281,68.6094 L15.3281,73 L14.0781,73 L14.0781,68.6094 L9.70313,68.6094 L9.70313,67.3438 L14.0781,67.3438 L14.0781,62.9688 L15.3281,62.9688 M35.5156,62.125 L30.9531,73 L29.7813,73 L34.1406,62.6094 L28.75,62.6094 L28.75,64.0469 L27.8281,64.0469 L27.8281,61.3281 L35.5156,61.3281 L35.5156,62.125 M49.0625,62.9688 L49.0625,67.3438 L53.4531,67.3438 L53.4531,68.6094 L49.0625,68.6094 L49.0625,73 L47.8125,73 L47.8125,68.6094 L43.4375,68.6094 L43.4375,67.3438 L47.8125,67.3438 L47.8125,62.9688 L49.0625,62.9688 M67.6719,69.8125 C67.6719,68.9792 67.4661,68.3307 67.0547,67.8672 C66.6432,67.4036 66.0625,67.1719 65.3125,67.1719 C64.5625,67.1719 63.9792,67.4036 63.5625,67.8672 C63.1458,68.3307 62.9375,68.9792 62.9375,69.8125 C62.9375,70.6458 63.1458,71.2943 63.5625,71.7578 C63.9792,72.2214 64.5625,72.4531 65.3125,72.4531 C66.0625,72.4531 66.6432,72.2214 67.0547,71.7578 C67.4661,71.2943 67.6719,70.6458 67.6719,69.8125 M67.3594,64.1406 C67.3594,63.4323 67.1797,62.8802 66.8203,62.4844 C66.4609,62.0885 65.9583,61.8906 65.3125,61.8906 C64.6667,61.8906 64.1641,62.0885 63.8047,62.4844 C63.4453,62.8802 63.2656,63.4323 63.2656,64.1406 C63.2656,64.8594 63.4453,65.4167 63.8047,65.8125 C64.1641,66.2083 64.6667,66.4063 65.3125,66.4063 C65.9583,66.4063 66.4609,66.2083 66.8203,65.8125 C67.1797,65.4167 67.3594,64.8594 67.3594,64.1406 M66.5156,66.7813 C67.401,66.9063 68.0911,67.2344 68.5859,67.7656 C69.0807,68.2969 69.3281,68.9792 69.3281,69.8125 C69.3281,70.9063 68.9818,71.75 68.2891,72.3438 C67.5964,72.9375 66.6042,73.2344 65.3125,73.2344 C64.0208,73.2344 63.0286,72.9375 62.3359,72.3438 C61.6432,71.75 61.2969,70.9063 61.2969,69.8125 C61.2969,68.9792 61.5443,68.2969 62.0391,67.7656 C62.5339,67.2344 63.224,66.9063 64.1094,66.7813 C63.3281,66.6458 62.7266,66.349 62.3047,65.8906 C61.8828,65.4323 61.6719,64.849 61.6719,64.1406 C61.6719,63.2031 61.9948,62.4661 62.6406,61.9297 C63.2865,61.3932 64.1771,61.125 65.3125,61.125 C66.4375,61.125 67.3229,61.3932 67.9688,61.9297 C68.6146,62.4661 68.9375,63.2031 68.9375,64.1406 C68.9375,64.849 68.7292,65.4323 68.3125,65.8906 C67.8958,66.349 67.2969,66.6458 66.5156,66.7813 M82.7969,62.9688 L82.7969,67.3438 L87.1875,67.3438 L87.1875,68.6094 L82.7969,68.6094 L82.7969,73 L81.5469,73 L81.5469,68.6094 L77.1719,68.6094 L77.1719,67.3438 L81.5469,67.3438 L81.5469,62.9688 L82.7969,62.9688 M101.438,67.7656 C101.094,68.1615 100.695,68.4557 100.242,68.6484 C99.7891,68.8411 99.276,68.9375 98.7031,68.9375 C97.5469,68.9375 96.6354,68.5885 95.9688,67.8906 C95.3021,67.1927 94.9688,66.2396 94.9688,65.0313 C94.9688,63.8438 95.3307,62.8958 96.0547,62.1875 C96.7786,61.4792 97.75,61.125 98.9688,61.125 C100.281,61.125 101.292,61.6146 102,62.5938 C102.708,63.5729 103.063,64.974 103.063,66.7969 C103.063,68.8385 102.643,70.4219 101.805,71.5469 C100.966,72.6719 99.7865,73.2344 98.2656,73.2344 C97.849,73.2344 97.4141,73.1927 96.9609,73.1094 C96.5078,73.026 96.0469,72.9063 95.5781,72.75 L95.5781,70.8125 L96.4531,70.8125 C96.5156,71.3438 96.7161,71.75 97.0547,72.0313 C97.3932,72.3125 97.849,72.4531 98.4219,72.4531 C99.4323,72.4531 100.185,72.0703 100.68,71.3047 C101.174,70.5391 101.427,69.3594 101.438,67.7656 M98.9063,61.8906 C98.1667,61.8906 97.599,62.1615 97.2031,62.7031 C96.8073,63.2448 96.6094,64.0208 96.6094,65.0313 C96.6094,66.0417 96.8073,66.8177 97.2031,67.3594 C97.599,67.901 98.1667,68.1719 98.9063,68.1719 C99.6458,68.1719 100.211,67.9089 100.602,67.3828 C100.992,66.8568 101.188,66.1042 101.188,65.125 C101.188,64.0833 100.99,63.2839 100.594,62.7266 C100.198,62.1693 99.6354,61.8906 98.9063,61.8906 M110.906,65.7656 L120.922,65.7656 L120.922,67.0156 L110.906,67.0156 L110.906,65.7656 M110.906,68.9531 L120.922,68.9531 L120.922,70.2031 L110.906,70.2031 L110.906,68.9531 M129.969,73 L129.969,72.1719 L132,72.1719 L132,62.4688 L129.641,63.9844 L129.641,62.9688 L132.484,61.125 L133.563,61.125 L133.563,72.1719 L135.594,72.1719 L135.594,73 L129.969,73 M142.953,72.4531 C143.745,72.4531 144.339,72.0156 144.734,71.1406 C145.13,70.2656 145.328,68.9427 145.328,67.1719 C145.328,65.401 145.13,64.0781 144.734,63.2031 C144.339,62.3281 143.745,61.8906 142.953,61.8906 C142.151,61.8906 141.552,62.3281 141.156,63.2031 C140.76,64.0781 140.563,65.401 140.563,67.1719 C140.563,68.9427 140.76,70.2656 141.156,71.1406 C141.552,72.0156 142.151,72.4531 142.953,72.4531 M142.953,73.2344 C141.682,73.2344 140.693,72.7005 139.984,71.6328 C139.276,70.5651 138.922,69.0781 138.922,67.1719 C138.922,65.2656 139.276,63.7813 139.984,62.7188 C140.693,61.6563 141.682,61.125 142.953,61.125 C144.224,61.125 145.214,61.6563 145.922,62.7188 C146.63,63.7813 146.984,65.2656 146.984,67.1719 C146.984,69.0781 146.63,70.5651 145.922,71.6328 C145.214,72.7005 144.224,73.2344 142.953,73.2344 M153.125,72.4531 C153.917,72.4531 154.51,72.0156 154.906,71.1406 C155.302,70.2656 155.5,68.9427 155.5,67.1719 C155.5,65.401 155.302,64.0781 154.906,63.2031 C154.51,62.3281 153.917,61.8906 153.125,61.8906 C152.323,61.8906 151.724,62.3281 151.328,63.2031 C150.932,64.0781 150.734,65.401 150.734,67.1719 C150.734,68.9427 150.932,70.2656 151.328,71.1406 C151.724,72.0156 152.323,72.4531 153.125,72.4531 M153.125,73.2344 C151.854,73.2344 150.865,72.7005 150.156,71.6328 C149.448,70.5651 149.094,69.0781 149.094,67.1719 C149.094,65.2656 149.448,63.7813 150.156,62.7188 C150.865,61.6563 151.854,61.125 153.125,61.125 C154.396,61.125 155.385,61.6563 156.094,62.7188 C156.802,63.7813 157.156,65.2656 157.156,67.1719 C157.156,69.0781 156.802,70.5651 156.094,71.6328 C155.385,72.7005 154.396,73.2344 153.125,73.2344 "/>
</g>

<g fill="#ffffff" fill-opacity="1" stroke="#ffffff" stroke-opacity="1" stroke-width="1" stroke-linecap="square" stroke-linejoin="bevel" transform="matrix(1,0,0,1,0,0)"
font-family="Ubuntu" font-size="11" font-weight="400" font-style="normal" 
>
<text fill="#ffffff" fill-opacity="1" stroke="none" xml:space="preserve" x="0" y="0" font-family="Ubuntu" font-size="11" font-weight="400" font-style="normal" 
 ></text>
</g>

<g fill="#000000" fill-opacity="1" stroke="#000000" stroke-opacity="1" stroke-width="1" stroke-linecap="butt" stroke-linejoin="miter" stroke-miterlimit="2" transform="matrix(1,0,0,1,0,0)"
font-family="Ubuntu" font-size="11" font-weight="400" font-style="normal" 
>
</g>

<g fill="#000000" fill-opacity="1" stroke="#000000" stroke-opacity="1" stroke-width="1" stroke-linecap="butt" stroke-linejoin="miter" stroke-miterlimit="2" transform="matrix(1,0,0,1,0,0)"
font-family="Ubuntu" font-size="11" font-weight="400" font-style="normal" 
>
</g>

<g fill="#000000" fill-opacity="1" stroke="#000000" stroke-opacity="1" stroke-width="1" stroke-linecap="butt" stroke-linejoin="miter" stroke-miterlimit="2" transform="matrix(1,0,0,1,0,0)"
font-family="Ubuntu" font-size="11" font-weight="400" font-style="normal" 
>
</g>
</g>
</svg>
