<svg version="1.1" viewBox="0 0 512 512" xmlns="http://www.w3.org/2000/svg">
    <path d="m248 20.27-175.67 112.33 175.67-3.823zm16 0v108.5l175.67 3.823zm-22.131 124.64-186.48 4.06 71.23 192.93zm28.26 0 115.25 196.99 71.23-192.93zm-14.13 7.53-117.08 200.11h234.15zm-204 33.539v173.27l61.86-5.703zm408 0-61.86 167.56 61.86 5.703zm-316.85 182.57 112.85 123.18 112.85-123.18zm-21.394 0.33-53.797 4.96 140.84 90.057zm268.48 0c-87.047 95.017 0 0-87.047 95.017l140.84-90.058z"
          fill="#f55" stroke="#720808" stroke-linecap="round" stroke-linejoin="round" stroke-width="6.1"
          style="paint-order:markers fill stroke"/>
    <text x="131.45312" y="327.02438" fill="#48373e" font-family="sans-serif" font-size="85.333px" letter-spacing="0px"
          opacity=".98" word-spacing="0px" style="line-height:1.25" xml:space="preserve"><tspan x="131.45312" y="327.02438" fill="#fff" font-size="192px">17</tspan></text>
</svg>
