<svg version="1.1" viewBox="0 0 512 512" xmlns="http://www.w3.org/2000/svg">
    <path d="m256 50.143-237.71 411.71h475.43l-237.71-411.71zm0.78125 119.58c28.194 0 50.676 7.0493 67.447 21.146 16.771 14.097 25.156 32.933 25.156 56.51 0 11.181-2.1254 21.814-6.3789 31.9-4.132 9.9653-11.728 21.754-22.787 35.365-3.0382 3.5243-12.7 13.733-28.984 30.625-16.285 16.771-39.253 40.286-68.906 70.547h128.52v30.99h-172.81v-30.99c13.976-14.462 32.994-33.845 57.057-58.15 24.184-24.427 39.376-40.166 45.574-47.215 11.788-13.247 19.991-24.426 24.609-33.541 4.7396-9.2361 7.1094-18.291 7.1094-27.162 0-14.462-5.1042-26.249-15.312-35.363-10.087-9.1146-23.274-13.672-39.559-13.672-11.545 0-23.759 2.0052-36.641 6.0156-12.76 4.0104-26.432 10.086-41.016 18.229v-37.188c14.826-5.9548 28.681-10.452 41.562-13.49 12.882-3.0382 24.671-4.5566 35.365-4.5566z"
          fill="#59f" stroke="#02006d" stroke-linejoin="round" stroke-width="11.873"
          style="paint-order:stroke fill markers"/>
</svg>
