<svg version="1.1" viewBox="0 0 512 512" xmlns="http://www.w3.org/2000/svg">
    <path d="m256 50.143-237.71 411.71h475.43l-237.71-411.71zm-0.66211 119.58c27.951 0 50.069 6.3802 66.354 19.141 16.285 12.639 24.428 29.774 24.428 51.406 0 15.069-4.3149 27.83-12.943 38.281-8.6285 10.33-20.902 17.499-36.822 21.51 17.622 3.7674 31.354 11.606 41.197 23.516 9.9653 11.91 14.949 26.615 14.949 44.115 0 26.858-9.2368 47.639-27.709 62.344-18.472 14.705-44.722 22.057-78.75 22.057-11.424 0-23.212-1.1539-35.365-3.4629-12.031-2.1875-24.487-5.5289-37.369-10.025v-35.547c10.208 5.9549 21.388 10.45 33.541 13.488 12.153 3.0382 24.853 4.5586 38.1 4.5586 23.09 0 40.65-4.5573 52.682-13.672 12.153-9.1146 18.23-22.362 18.23-39.74 0-16.042-5.651-28.56-16.953-37.553-11.181-9.1146-26.798-13.672-46.85-13.672h-31.719v-30.26h33.178c18.108 0 31.962-3.5857 41.562-10.756 9.6007-7.2917 14.4-17.742 14.4-31.354 0-13.976-4.982-24.671-14.947-32.084-9.8438-7.5347-24.002-11.301-42.475-11.301-10.087 0-20.902 1.0938-32.447 3.2812-11.545 2.1875-24.245 5.589-38.1 10.207v-32.812c13.976-3.8889 27.041-6.8056 39.193-8.75 12.274-1.9444 23.819-2.916 34.635-2.916z"
          fill="#59f" stroke="#02006d" stroke-linejoin="round" stroke-width="11.873"
          style="paint-order:stroke fill markers"/>
</svg>
