<svg version="1.1" viewBox="0 0 512 512" xmlns="http://www.w3.org/2000/svg">
    <path class="cls-1"
          d="M302.87 255.5a47.37 47.37 0 1 1-47.37-47.37 47.37 47.37 0 0 1 47.37 47.37zM484.5 428.02a56.48 56.48 0 0 1-56.48 56.48h-344a56.48 56.48 0 0 1-56.52-56.48v-344A56.48 56.48 0 0 1 83.98 27.5h344a56.48 56.48 0 0 1 56.52 56.48zm-20-344a36.48 36.48 0 0 0-36.48-36.52h-344A36.48 36.48 0 0 0 47.5 83.98v344a36.48 36.48 0 0 0 36.48 36.52h344a36.48 36.48 0 0 0 36.52-36.48z"
          fill="#ffb380"/>
    <path d="m69.641 460.44c-6.1381-2.5701-13.493-9.9626-17.369-17.459-2.9088-5.625-3.2429-28.787-2.735-189.61 0.57173-181.05 0.63105-183.27 5.0445-189.33 2.4563-3.3684 8.7649-8.321 14.019-11.006l9.553-4.8814h356.13l9.6711 4.8814c6.3568 3.2085 11.342 7.8553 14.546 13.559l4.8749 8.678-0.52701 182.62c-0.52376 181.49-0.55517 182.66-5.0655 188.75-2.4962 3.3684-7.766 8.321-11.711 11.006l-7.1722 4.8814-182.46-0.13754c-100.35-0.07561-184.41-0.95506-186.8-1.9543zm210.59-163.85c14.008-8.2092 21.166-20.101 22.239-36.946 1.1053-17.358-2.0591-26.779-12.666-37.709-17.653-18.19-45.771-19.469-65.058-2.9597-22.347 19.128-23.174 51.289-1.8384 71.562 15.39 14.624 38.528 17.067 57.323 6.0522z"
          fill="#2b1100" stroke="#535353" stroke-linecap="round" stroke-linejoin="round" stroke-width=".21695"
          style="paint-order:normal"/>
</svg>
