<svg version="1.1" viewBox="0 0 512 512" xmlns="http://www.w3.org/2000/svg">
    <path class="cls-1"
          d="M383 81.68A47.37 47.37 0 1 1 335.58 129 47.37 47.37 0 0 1 383 81.68zM81.67 383A47.37 47.37 0 1 0 129 335.59 47.37 47.37 0 0 0 81.67 383zM428 47.57H84A36.48 36.48 0 0 0 47.57 84v344A36.48 36.48 0 0 0 84 464.43h344A36.48 36.48 0 0 0 464.43 428V84A36.48 36.48 0 0 0 428 47.57m0-20A56.54 56.54 0 0 1 484.43 84v344A56.54 56.54 0 0 1 428 484.43H84A56.54 56.54 0 0 1 27.57 428V84A56.54 56.54 0 0 1 84 27.57z"
          fill="#ffb380"/>
    <path d="m66.217 457.6c-4.026-2.7131-9.556-8.2508-12.289-12.306l-4.9687-7.373 0.57809-183.49 0.57809-183.49 5.2091-7.3037c2.865-4.017 9.2108-9.121 14.102-11.342 8.438-3.8321 17.998-4.041 186.99-4.0862l178.1-0.04765 9.5616 4.9763c6.8172 3.548 10.973 7.7483 14.479 14.634l4.9174 9.6582-0.57839 181.55c-0.57461 180.36-0.60809 181.59-5.1168 187.67-2.4962 3.3684-7.766 8.321-11.711 11.006l-7.1722 4.8814h-365.36zm84.78-32.01c43.103-22.027 29.754-86.234-18.781-90.333-10.898-0.92032-14.349-0.20913-24.595 5.0688-17.101 8.8086-24.58 20.322-25.664 39.506-1.0093 17.863 3.495 28.357 17.212 40.098 14.472 12.387 34.406 14.565 51.829 5.6612zm253.83-253.88c43.132-21.761 29.73-86.187-18.781-90.284-10.898-0.92033-14.349-0.20916-24.595 5.0688-16.213 8.3513-24.373 20.253-25.61 37.356-1.1186 15.464 2.1501 26.299 10.962 36.335 14.909 16.98 38.087 21.584 58.025 11.525z"
          fill="#2b1100" stroke="#535353" stroke-linecap="round" stroke-linejoin="round" stroke-width=".21695"
          style="paint-order:normal"/>
</svg>
