<svg version="1.1" viewBox="0 0 512 512" xmlns="http://www.w3.org/2000/svg">
    <path class="cls-1"
          d="M302.87 255.5a47.37 47.37 0 1 1-47.37-47.37 47.37 47.37 0 0 1 47.37 47.37zM128.5 81.18a47.37 47.37 0 1 0 47.41 47.32 47.37 47.37 0 0 0-47.41-47.32zm253.91 0a47.37 47.37 0 1 0 47.41 47.32 47.37 47.37 0 0 0-47.32-47.32zM128.5 335.09a47.37 47.37 0 1 0 47.41 47.41 47.37 47.37 0 0 0-47.41-47.41zm253.91 0a47.37 47.37 0 1 0 47.41 47.41 47.37 47.37 0 0 0-47.32-47.41zm102 92.93a56.48 56.48 0 0 1-56.39 56.48h-344a56.48 56.48 0 0 1-56.52-56.48v-344A56.48 56.48 0 0 1 83.98 27.5h344a56.48 56.48 0 0 1 56.52 56.48zm-20-344a36.48 36.48 0 0 0-36.39-36.52h-344A36.48 36.48 0 0 0 47.5 83.98v344a36.48 36.48 0 0 0 36.48 36.52h344a36.48 36.48 0 0 0 36.52-36.48z"
          fill="#ffb380"/>
    <path d="m69.641 460.44c-6.1381-2.5701-13.493-9.9626-17.369-17.459-2.9088-5.625-3.2429-28.787-2.735-189.61 0.57173-181.05 0.63105-183.27 5.0445-189.33 2.4563-3.3684 8.7649-8.321 14.019-11.006l9.553-4.8814h356.36l9.5616 4.9763c6.8172 3.548 10.973 7.7483 14.479 14.634l4.9174 9.6582-0.57839 181.55c-0.57461 180.36-0.60809 181.59-5.1168 187.67-2.4962 3.3684-7.766 8.321-11.711 11.006l-7.1722 4.8814-182.46-0.13754c-100.35-0.0756-184.41-0.95506-186.8-1.9543zm85.272-37.507c4.8734-3.225 11.599-10.523 14.947-16.217 5.0024-8.5101 6.086-12.895 6.086-24.625 0-19.351-7.9833-32.77-24.688-41.497-30.037-15.692-64.001 1.041-70.417 34.692-3.5492 18.614 9.2951 42.111 27.73 50.729 13.114 6.1305 34.58 4.7035 46.343-3.0808zm253.83 0c4.8734-3.225 11.599-10.523 14.947-16.217 5.0024-8.5101 6.086-12.895 6.086-24.625 0-12.088-1.001-15.891-6.542-24.853-15.651-25.315-52.08-30.337-73.386-10.116-25.081 23.804-17.896 65.332 13.758 79.525 12.052 5.4034 34.102 3.5897 45.137-3.7127zm-128.51-126.34c14.008-8.2092 21.166-20.101 22.239-36.946 1.1053-17.358-2.0591-26.779-12.666-37.709-17.653-18.19-45.771-19.469-65.058-2.9597-22.347 19.128-23.174 51.289-1.8384 71.562 15.39 14.624 38.528 17.067 57.323 6.0522zm-125.56-127.53c13.818-8.8399 21.272-23.138 21.272-40.801 0-12.088-1.001-15.891-6.542-24.853-15.651-25.315-52.08-30.337-73.386-10.116-25.081 23.804-17.896 65.332 13.758 79.525 11.877 5.3249 33.536 3.5136 44.897-3.7547zm254.07 0.0419c4.8734-3.225 11.599-10.523 14.947-16.217 5.0024-8.5101 6.086-12.895 6.086-24.625 0-12.088-1.001-15.891-6.542-24.853-15.651-25.315-52.08-30.337-73.386-10.116-25.081 23.804-17.896 65.332 13.758 79.525 12.052 5.4034 34.102 3.5897 45.137-3.7127z"
          fill="#280b0b" stroke="#535353" stroke-linecap="round" stroke-linejoin="round" stroke-width=".21695"
          style="paint-order:normal"/>
</svg>
