<svg version="1.1" viewBox="0 0 512 512" xmlns="http://www.w3.org/2000/svg">
    <path d="m256 37.143-178.1 306.71h356.21l-178.1-306.71zm-25.846 12.646-158.15 114.44v157.91l158.15-272.35zm51.689 0 158.16 272.36v-157.91l-158.16-114.44zm-29.781 106.64c14.5 0 26.062 3.625 34.688 10.875s12.938 16.938 12.938 29.062c0 5.75-1.0938 11.219-3.2812 16.406-2.125 5.125-6.0312 11.188-11.719 18.188-1.5625 1.8125-6.5312 7.0625-14.906 15.75-8.375 8.625-20.188 20.719-35.438 36.281h66.094v15.938h-88.875v-15.938c7.1875-7.4375 16.969-17.406 29.344-29.906 12.438-12.562 20.25-20.656 23.438-24.281 6.0625-6.8125 10.281-12.562 12.656-17.25 2.4375-4.75 3.6562-9.4062 3.6562-13.969 0-7.4375-2.625-13.5-7.875-18.188-5.1875-4.6875-11.969-7.0312-20.344-7.0312-5.9375 0-12.219 1.0312-18.844 3.0938-6.5625 2.0625-13.594 5.1875-21.094 9.375v-19.125c7.625-3.0625 14.75-5.375 21.375-6.9375s12.688-2.3438 18.188-2.3438zm-163.36 203.42 167.3 121.06 167.3-121.06h-334.6z"
          fill="#aade87" stroke="#535353" stroke-linecap="round" stroke-linejoin="round" stroke-width="6.3"
          style="paint-order:normal"/>
</svg>
