<svg version="1.1" viewBox="0 0 512 512" xmlns="http://www.w3.org/2000/svg">
    <path d="m256 37.143-178.1 306.71h356.21l-178.1-306.71zm-25.846 12.646-158.15 114.44v157.91l158.15-272.35zm51.689 0 158.16 272.36v-157.91l-158.16-114.44zm-27.531 106.64c14.375 0 25.75 3.2812 34.125 9.8438 8.375 6.5 12.562 15.312 12.562 26.438 0 7.75-2.2188 14.312-6.6562 19.688-4.4375 5.3125-10.75 9-18.938 11.062 9.0625 1.9375 16.125 5.9688 21.188 12.094 5.125 6.125 7.6875 13.688 7.6875 22.688 0 13.812-4.75 24.5-14.25 32.062s-23 11.344-40.5 11.344c-5.875 0-11.938-0.59375-18.188-1.7812-6.1875-1.125-12.594-2.8438-19.219-5.1562v-18.281c5.25 3.0625 11 5.375 17.25 6.9375s12.781 2.3438 19.594 2.3438c11.875 0 20.906-2.3438 27.094-7.0312 6.25-4.6875 9.375-11.5 9.375-20.438 0-8.25-2.9062-14.688-8.7188-19.312-5.75-4.6875-13.781-7.0312-24.094-7.0312h-16.312v-15.562h17.062c9.3125 0 16.438-1.8438 21.375-5.5312 4.9375-3.75 7.4062-9.125 7.4062-16.125 0-7.1875-2.5625-12.688-7.6875-16.5-5.0625-3.875-12.344-5.8125-21.844-5.8125-5.1875 0-10.75 0.5625-16.688 1.6875s-12.469 2.875-19.594 5.25v-16.875c7.1875-2 13.906-3.5 20.156-4.5 6.3125-1 12.25-1.5 17.812-1.5zm-165.61 203.42 167.3 121.06 167.3-121.06h-334.6z"
          fill="#aade87" stroke="#535353" stroke-linecap="round" stroke-linejoin="round" stroke-width="6.3"
          style="paint-order:normal"/>
</svg>
