<svg version="1.1" viewBox="0 0 512 512" xmlns="http://www.w3.org/2000/svg">
    <path d="m256 37.143-178.1 306.71h356.21l-178.1-306.71zm-25.846 12.646-158.15 114.44v157.91l158.15-272.35zm51.689 0 158.16 272.36v-157.91l-158.16-114.44zm-65.219 109.17h74.344v15.938h-57v34.312c2.75-0.9375 5.5-1.625 8.25-2.0625 2.75-0.5 5.5-0.75 8.25-0.75 15.625 0 28 4.2812 37.125 12.844s13.688 20.156 13.688 34.781c0 15.062-4.6875 26.781-14.062 35.156-9.375 8.3125-22.594 12.469-39.656 12.469-5.875 0-11.875-0.5-18-1.5-6.0625-1-12.344-2.5-18.844-4.5v-19.031c5.625 3.0625 11.438 5.3438 17.438 6.8438s12.344 2.25 19.031 2.25c10.812 0 19.375-2.8438 25.688-8.5312s9.4688-13.406 9.4688-23.156-3.1562-17.469-9.4688-23.156-14.875-8.5312-25.688-8.5312c-5.0625 0-10.125 0.5625-15.188 1.6875-5 1.125-10.125 2.875-15.375 5.25v-70.312zm-127.93 200.89 167.3 121.06 167.3-121.06h-334.6z"
          fill="#aade87" stroke="#535353" stroke-linecap="round" stroke-linejoin="round" stroke-width="6.3"
          style="paint-order:normal"/>
</svg>
