<svg version="1.1" viewBox="0 0 512 512" xmlns="http://www.w3.org/2000/svg">
    <path d="m256 37.143-178.1 306.71h356.21l-178.1-306.71zm-25.846 12.646-158.15 114.44v157.91l158.15-272.35zm51.689 0 158.16 272.36v-157.91l-158.16-114.44zm-16.141 106.64c4.75 0 9.5313 0.46875 14.344 1.4062 4.875 0.9375 9.9375 2.3438 15.188 4.2188v17.25c-4.75-2.25-9.5625-3.9688-14.438-5.1562-4.8125-1.1875-9.5938-1.7812-14.344-1.7812-12.5 0-22.062 4.2188-28.688 12.656-6.5625 8.4375-10.312 21.188-11.25 38.25 3.6875-5.4375 8.3125-9.5938 13.875-12.469 5.5625-2.9375 11.688-4.4062 18.375-4.4062 14.062 0 25.156 4.2812 33.281 12.844 8.1875 8.5 12.281 20.094 12.281 34.781 0 14.375-4.25 25.906-12.75 34.594s-19.812 13.031-33.938 13.031c-16.188 0-28.562-6.1875-37.125-18.562-8.5625-12.438-12.844-30.438-12.844-54 0-22.125 5.25-39.75 15.75-52.875 10.5-13.188 24.594-19.781 42.281-19.781zm-8.0625 64.969c-8.5 0-15.25 2.9062-20.25 8.7188-4.9375 5.8125-7.4062 13.781-7.4062 23.906 0 10.062 2.4687 18.031 7.4062 23.906 5 5.8125 11.75 8.7188 20.25 8.7188s15.219-2.9062 20.156-8.7188c5-5.875 7.5-13.844 7.5-23.906 0-10.125-2.5-18.094-7.5-23.906-4.9375-5.8125-11.656-8.7188-20.156-8.7188zm-168.94 138.46 167.3 121.06 167.3-121.06h-334.6z"
          fill="#aade87" stroke="#535353" stroke-linecap="round" stroke-linejoin="round" stroke-width="6.3"
          style="paint-order:normal"/>
</svg>
