<svg version="1.1" viewBox="0 0 512 512" xmlns="http://www.w3.org/2000/svg">
    <path d="m256 37.143-178.1 306.71h356.21l-178.1-306.71zm-25.846 12.646-158.15 114.44v157.91l158.15-272.35zm51.689 0 158.16 272.36v-157.91l-158.16-114.44zm-25.844 111.47c12.762 0 22.777 3.1222 30.045 9.3672s10.902 14.742 10.902 25.49c0 7.6862-2.0899 14.203-6.2676 19.547-4.1204 5.3443-9.8715 8.9769-17.254 10.898 8.3553 2.0416 14.851 6.0337 19.486 11.979 4.6927 5.9448 7.0391 13.212 7.0391 21.799 0 13.03-3.8047 23.029-11.416 29.994-7.5541 6.9656-18.4 10.447-32.535 10.447s-25.008-3.4817-32.619-10.447c-7.5541-6.9656-11.332-16.964-11.332-29.994 0-8.5869 2.3464-15.854 7.0391-21.799 4.6927-5.9448 11.217-9.9369 19.572-11.979-7.4397-1.9216-13.248-5.5541-17.426-10.898-4.1204-5.3443-6.1816-11.861-6.1816-19.547 0-10.749 3.6344-19.245 10.902-25.49 7.3252-6.245 17.34-9.3672 30.045-9.3672zm0 14.412c-7.4969 0-13.334 1.9504-17.512 5.8535-4.1204 3.9031-6.1816 9.3371-6.1816 16.303s2.0612 12.402 6.1816 16.305c4.1777 3.9031 10.015 5.8535 17.512 5.8535 7.4397 0 13.248-1.9504 17.426-5.8535 4.2349-3.9031 6.3516-9.3391 6.3516-16.305s-2.1167-12.4-6.3516-16.303c-4.1776-3.9031-9.9861-5.8535-17.426-5.8535zm0 58.637c-8.2409 0-14.736 2.3118-19.486 6.9356-4.6927 4.6237-7.0391 10.989-7.0391 19.096 0 8.1065 2.3464 14.47 7.0391 19.094 4.7499 4.6237 11.245 6.9356 19.486 6.9356 8.2408 0 14.736-2.3118 19.486-6.9356 4.7499-4.6838 7.125-11.047 7.125-19.094 0-8.1065-2.3751-14.472-7.125-19.096-4.6927-4.6237-11.188-6.9356-19.486-6.9356zm-167.3 125.54 167.3 121.06 167.3-121.06h-334.6z"
          fill="#aade87" stroke="#535353" stroke-linecap="round" stroke-linejoin="round" stroke-width="6.3"
          style="paint-order:normal"/>
</svg>
